<svg width="512" height="512" viewBox="0 0 512 512" xmlns="http://www.w3.org/2000/svg">
  <defs>
    <linearGradient id="bg" x1="0" y1="0" x2="512" y2="512" gradientUnits="userSpaceOnUse">
      <stop stop-color="#34D399"/><stop offset="1" stop-color="#059669"/>
    </linearGradient>
  </defs>

  <!-- fundo arredondado verde frescor -->
  <rect width="512" height="512" rx="112" fill="url(#bg)"/>

  <!-- alça da sacola -->
  <path d="M198 178v-22a58 58 0 0 1 116 0v22" fill="none" stroke="#FFFFFF" stroke-width="24" stroke-linecap="round"/>

  <!-- corpo da sacola -->
  <path d="M150 176h212a16 16 0 0 1 15.9 14.1l26 190A28 28 0 0 1 376 412H136a28 28 0 0 1-27.8-31.9l26-190A16 16 0 0 1 150 176Z" fill="#FFFFFF"/>

  <!-- check de "comprado" -->
  <path d="M192 300l44 44 86-92" fill="none" stroke="#059669" stroke-width="34" stroke-linecap="round" stroke-linejoin="round"/>

  <!-- selo de oferta (laranja) -->
  <circle cx="392" cy="168" r="48" fill="#F59E0B" stroke="#10B981" stroke-width="14"/>
</svg>
